<svg xmlns="http://www.w3.org/2000/svg" viewBox="0 0 795.06 191.56"><g id="Layer_2" data-name="Layer 2"><g id="Thicc_copy" data-name="Thicc copy"><path d="M761.91,96.25H683.56a25.82,25.82,0,0,0,1.92-9.83A25.46,25.46,0,0,0,660.18,61H508.77V0L475.61,33.15V65.77A25.29,25.29,0,0,0,461,61H309.44a34.73,34.73,0,0,0-33.52,25.78L260.62,66.7A14,14,0,0,0,249.32,61h-6.56a14,14,0,0,0-11.23,5.57L222.91,78A25.82,25.82,0,0,0,198.71,61H134c-13.77,0-25.3,11-25.7,24.62a25.3,25.3,0,0,0,2,10.59H33.15L0,129.4H226L246,102.56l16.4,21.91,36.77,48.32,42-.09-32.92-43.3h91.2a33.92,33.92,0,0,0,24.26-10.1,34.45,34.45,0,0,0,5.64-7.5h7.52A25.56,25.56,0,0,0,461,129.4h70.22V111.8h7.58v44.89l33.16,34.87V129.4h60V111.8h4.21a25.56,25.56,0,0,0,24.08,17.6H795.06ZM640.07,106.8H626.88v17.6h-60v54.65l-23.16-24.36V106.8H526.19v17.6H461a20.43,20.43,0,0,1-20.11-17.6H426.27a29.23,29.23,0,0,1-26.8,17.6H298.2l32.92,43.32-29.44.07-35.26-46.34L246,94.21,223.46,124.4H12.07l23.15-23.15H119.7c-.22-.21-.44-.42-.65-.64A20.22,20.22,0,0,1,113.3,85.8,20.7,20.7,0,0,1,134,66h64.71a20.43,20.43,0,0,1,20,25.71l16.81-22.11a9,9,0,0,1,7.25-3.6h6.56a9,9,0,0,1,7.29,3.65L280.43,101a29.91,29.91,0,0,1-.58-6.37C280.15,78.88,293.42,66,309.44,66H461A20.43,20.43,0,0,1,480.61,81.3V35.22l23.16-23.15V66H660.18A20.48,20.48,0,0,1,677,98a20.69,20.69,0,0,1-2.8,3.24h85.69L783,124.4H660.18A20.44,20.44,0,0,1,640.07,106.8Z"/><path d="M508,119.4h13.16V102.83a1,1,0,0,1,1-1h10V88.64H508Z"/><path d="M592.64,101.8h10V88.64H578.45V119.4h43.44V106.25H592.64a1,1,0,0,1-1-1v-2.39A1,1,0,0,1,592.64,101.8Z"/><path d="M770.92,119.4l-13.16-13.15h-97.5a2.23,2.23,0,0,1,0-4.45h.32a15.38,15.38,0,0,0-.4-30.75H508V84.19h40.74v68.5l13.16,13.84V84.19H660.1a2.22,2.22,0,1,1,0,4.44h-28V101.8h11.75a1,1,0,0,1,1,1.1c0,.37,0,.75,0,1.13a15.37,15.37,0,0,0,15.3,15.37H770.92Z"/><path d="M298,94.8A11.21,11.21,0,0,1,309.3,84.19H371V71H309.44c-13.24,0-24.34,10.47-24.59,23.71A24.21,24.21,0,0,0,309,119.4h19.25V106.25H309A11,11,0,0,1,298,94.8Z"/><path d="M249.32,71h-6.56a4.08,4.08,0,0,0-3.27,1.62L214,106.25H185.15a1,1,0,0,1-1-1v-2.39a1,1,0,0,1,1-1H199a15.39,15.39,0,0,0,15.38-15.67A15.57,15.57,0,0,0,198.71,71H134A15.59,15.59,0,0,0,118.3,86a15.39,15.39,0,0,0,15.37,15.85h12.57a2.3,2.3,0,0,1,2.32,2,2.24,2.24,0,0,1-2.22,2.45H37.3L24.14,119.4h122.2a15.39,15.39,0,0,0,15.37-15.84A15.59,15.59,0,0,0,146,88.64H133.77a2.28,2.28,0,0,1-2.31-2,2.22,2.22,0,0,1,2.21-2.45h65.21a2.32,2.32,0,0,1,2.36,2.11,2.24,2.24,0,0,1-.82,1.85,2.34,2.34,0,0,1-1.49.49H171V119.4h50L245.22,87a1,1,0,0,1,1.64,0l23.54,31.45,33.76,44.36,16.9,0L252.61,72.68A4.08,4.08,0,0,0,249.32,71Z"/><path d="M399.2,71h-19V101.8h13.15V85.22a1,1,0,0,1,1-1h4.85A11.18,11.18,0,0,1,410.49,95a11,11,0,0,1-11,11.22H351.71a1,1,0,0,1-1-1v-2.39a1,1,0,0,1,1-1h10V88.64H337.52V119.4h62A24.17,24.17,0,0,0,423.65,95,24.38,24.38,0,0,0,399.2,71Z"/><path d="M485.61,37.29v69H461.05a2.23,2.23,0,0,1,0-4.45h.32A15.38,15.38,0,0,0,461,71H422.39a33.38,33.38,0,0,1,8.54,13.15h30a2.22,2.22,0,1,1,0,4.44h-28V101.8h11.76a1,1,0,0,1,1,1.1c0,.37,0,.75,0,1.13A15.37,15.37,0,0,0,461,119.4h37.8V24.14Z"/></g></g></svg>